PathFileType	4	(X/Y/Z)	Walk1_0-155.trc
DataRate	CameraRate	NumFrames	NumMarkers	Units	OrigDataRate	OrigDataStartFrame	OrigNumFrames
30	30	7	22	m	30	19	155
Frame#	Time	Hip			RHip			RKnee			RAnkle			RBigToe			RSmallToe			RHeel			LHip			LKnee			LAnkle			LBigToe			LSmallToe			LHeel			Neck			Head			Nose			RShoulder			RElbow			RWrist			LShoulder			LElbow			LWrist		
		X1	Y1	Z1	X2	Y2	Z2	X3	Y3	Z3	X4	Y4	Z4	X5	Y5	Z5	X6	Y6	Z6	X7	Y7	Z7	X8	Y8	Z8	X9	Y9	Z9	X10	Y10	Z10	X11	Y11	Z11	X12	Y12	Z12	X13	Y13	Z13	X14	Y14	Z14	X15	Y15	Z15	X16	Y16	Z16	X17	Y17	Z17	X18	Y18	Z18	X19	Y19	Z19	X20	Y20	Z20	X21	Y21	Z21	X22	Y22	Z22
20	0.6666666666666666	-2.509728348420215	0.8447958691890173	0.3269945728766488	-2.4790808155993416	0.833592166155343	0.4113199961813339	-2.3296308841673232	0.5183302312673539	0.4613336227444179	-2.4906883389782637	0.12379204638652395	0.4934933775651028	-2.3366268208423553	-0.0009237857606484456	0.5230117232521286	-2.3608288373864426	0.005301458774036283	0.5892741451570856	-2.5330470282969726	0.05021577440630367	0.49095542829289546	-2.5334420997479543	0.8106756488835299	0.2282561318119584	-2.5004748347048555	0.4640396733963453	0.23519753034475083	-2.5755373034266893	0.07031343629261845	0.2733886551355881	-2.38103850017556	-0.019794444546865367	0.2728444245397984	-2.429317080402803	-0.029245110678773577	0.2159024605081655	-2.624180418745507	-0.016176693915636215	0.2886065378273669	-2.4958464234900677	1.518114600616578	0.2766565017020586	-2.448275699926599	1.7751451766270838	0.2749195327236897	-2.3515780699896816	1.6376389721037763	0.2882851402762451	-2.538166902076969	1.4048656974160052	0.4610102802221616	-2.51753851657176	1.0908596467364675	0.5545746524727933	-2.430359942958473	0.8544362025615281	0.5685919533017885	-2.5113310117784557	1.3927075034970815	0.12269596214383165	-2.5102536913392757	1.0846902200276853	0.07138805248578983	-2.4657150496550133	0.8370214267160967	0.07947138798235334
21	0.7	-2.498585968835614	0.8477986787648365	0.3248723062482832	-2.465720949829341	0.83921504239426	0.409795800859789	-2.304416024082251	0.5255579556110272	0.4574314621825824	-2.452243004697017	0.13183189735642692	0.4879233031586297	-2.303634818597454	0.00841245388184768	0.5139982531155348	-2.3252966281909315	0.012586795098384021	0.5817731120445695	-2.5036947785424797	0.05583144715165665	0.4827141456422638	-2.527285424946913	0.8132868545191831	0.22513862015525826	-2.495569493936137	0.4652997649491518	0.2331628414403978	-2.5757470205671447	0.07171508351127334	0.27136288473745074	-2.3818792946773093	-0.02049388195775709	0.27149831276591463	-2.430052509281553	-0.029548864590379878	0.21559979653515354	-2.6244027246454893	-0.013717170984865058	0.2853856519660423	-2.4854874305701227	1.5189677643666546	0.2747800331020272	-2.436344159932763	1.7754689734154587	0.2762834517313001	-2.34272146461699	1.6372742418790085	0.28649096773002053	-2.5293543505306078	1.4065295150542192	0.45932975591375663	-2.513629069664841	1.090876368982325	0.5523956332880885	-2.428367220988748	0.8529263005552913	0.5684898819363678	-2.504596602024345	1.3944071846161588	0.11463917218897669	-2.4991996807465764	1.0859889301201073	0.06728722301751891	-2.4562001802295894	0.838091406072298	0.07546838687980062
22	0.7333333333333333	-2.486523189016837	0.8501813559585402	0.32347843665378806	-2.450794823825924	0.8432629231344019	0.40931432073127527	-2.2849230838964973	0.5309396294681529	0.4527980843193948	-2.411936686610013	0.13633933563504702	0.48194484691877015	-2.2624717558872693	0.01885378222352988	0.5047214339430419	-2.2821606530639365	0.01970268774399314	0.5725178821002955	-2.469135588164754	0.05678377579993947	0.4739651877637814	-2.519544249087398	0.8149641419208793	0.22334377351166762	-2.4912351653170495	0.46497040895199665	0.23196340576256613	-2.575723527990611	0.07269648729865863	0.2690953051129495	-2.3823571557614196	-0.02096452971085356	0.269893842857027	-2.4302895478252395	-0.029794031486843876	0.2148668827099551	-2.624186306689088	-0.012187558440383982	0.2819529506267868	-2.4741615704695743	1.519799045123862	0.2738651239116765	-2.423422943186629	1.7756244592470343	0.28057131887980863	-2.330145359318273	1.6374772437844143	0.2864876084657603	-2.5189301305454466	1.407600017389838	0.4587003106888259	-2.508814913603047	1.0908491860856389	0.5507478159292546	-2.4272297677192007	0.8506421332938262	0.5689376289669369	-2.4981529708300787	1.3965080647061394	0.10628929877846996	-2.4871773644715	1.0869832204073726	0.06467020412935963	-2.4444145285591574	0.8392702821403984	0.07353591583747178
23	0.7666666666666667	-2.4739651966938614	0.8517024998972323	0.32264590499216217	-2.434988413152204	0.8453027980445437	0.4096001733706625	-2.2712809500313567	0.5343111146125205	0.44700016865356706	-2.3700830419461507	0.13737386499512408	0.47614558952083974	-2.213126549530421	0.0297435457660145	0.4967652907439883	-2.232546736769659	0.02726345303739822	0.5620420343702421	-2.428846539162877	0.053432271224916006	0.46587214376666525	-2.5101639601423598	0.8155598980742175	0.22278229764115393	-2.487406228666003	0.46312316343058896	0.2314861573353491	-2.575409662967905	0.07295847847532347	0.26708650218173624	-2.382406127016786	-0.02159547930833651	0.26869422664322606	-2.429875629187019	-0.03031020992533508	0.21414457151140148	-2.6235271406917144	-0.012015840718490382	0.2789995507242152	-2.461836534920391	1.5203818829740257	0.273762599422315	-2.408691756861153	1.7752537446094343	0.28549966131494836	-2.3144875916529086	1.6378553993457838	0.2875031293353109	-2.507280910604122	1.4079508514756058	0.45859935503202603	-2.5029590638787376	1.0906056511919597	0.549335232803544	-2.4266173998889027	0.8477618358845116	0.5697834478818357	-2.4910016763660936	1.39869709064544	0.09905022362730732	-2.4742161077080427	1.0874910878145316	0.06350907876492574	-2.43030125363368	0.8403584802234785	0.07351087661924523
24	0.8	-2.461386064678584	0.8522245139161236	0.3221262561065076	-2.419195742594614	0.8452251941690903	0.4102462118642143	-2.2624878898789067	0.5357776440903591	0.4398106313546169	-2.327097516253999	0.13598192944147325	0.4709845549469504	-2.157352172152866	0.04042566025286974	0.49092655456213724	-2.1781875482488884	0.03598783590628102	0.5510401124155594	-2.382408861969733	0.04729519088826791	0.45925687039390833	-2.4994150679285863	0.8150821802156546	0.2231467344394878	-2.4838880375866537	0.460095139724781	0.23166878990024573	-2.5748572134880665	0.07226226933992239	0.2659968041507146	-2.3822744773626083	-0.02293648374118415	0.26876178987863264	-2.429039908735939	-0.03145064877610173	0.21433805010246065	-2.6226415534014555	-0.013297977481486825	0.2772490301316273	-2.4484846895559107	1.52059165152724	0.27426431799948336	-2.3919836215313466	1.7742843042286234	0.28936645225639085	-2.2972580549821804	1.6379375202695492	0.28862934854600025	-2.4947093945566055	1.4076329707758595	0.45871514798344776	-2.495964340600446	1.090117389587589	0.5479289866506292	-2.426200193119652	0.8446925705726431	0.5708651243327104	-2.482630369390228	1.400767331897573	0.09348232409034592	-2.4601391843619593	1.0874411309854906	0.06357260164967037	-2.413902957450601	0.8411337440147265	0.07505516013211375
25	0.8333333333333334	-2.4491319283484048	0.8516168709621253	0.3217799381857386	-2.4041659693224666	0.8432832627190232	0.4110192300325207	-2.2565027806562292	0.5353012490587122	0.43167203333783233	-2.2837688408161925	0.13360246843389198	0.4666285596881796	-2.098029888649523	0.05068054114014169	0.486876191141969	-2.12135597723425	0.04612852134152338	0.5405774830644765	-2.3310402834676776	0.039947466307118824	0.4540590399281792	-2.4877554726055338	0.813649871105721	0.22417769075699912	-2.4802518132458196	0.4564526430822281	0.23248836337195072	-2.574190931856276	0.07058799125570352	0.2663559427948424	-2.3823980627956916	-0.025405726311277844	0.27086618354521913	-2.4283867368024974	-0.0334445478230308	0.21659454660017854	-2.622009650148162	-0.01573094963112327	0.2772009268263358	-2.4340762866414964	1.5203843022546117	0.2751747798893266	-2.374349710531949	1.7730096642793427	0.29093463514329254	-2.2797582890219417	1.6374177765419942	0.28986887326840266	-2.4813135380678997	1.4068752513897187	0.4589792801914118	-2.4877092612660667	1.0894814112070998	0.5465243033130286	-2.4256840776149398	0.8417581650421601	0.5720745378388361	-2.473419199579287	1.4027436266586473	0.08875233025054886	-2.444697023145706	1.08684677492716	0.06451625882381712	-2.395347285224268	0.8413471284985287	0.07770211731163741
26	0.8666666666666667	-2.4373124097987215	0.8497313739526329	0.3216428879919889	-2.390271408909856	0.8399945908345164	0.41195956334214895	-2.2507218728374574	0.5327069038045608	0.42362401307535835	-2.241301118245299	0.13139478377090796	0.46301293050035847	-2.038604196320471	0.060612234472829644	0.4835552946562226	-2.0646140364393077	0.057073986552389065	0.5318155873065624	-2.2778961951103422	0.03251694058009729	0.4495390854992548	-2.4756141443414137	0.8114787085997299	0.22568092651019495	-2.4759415786387913	0.45279477600789975	0.2338904484407683	-2.5736437070209797	0.06824251554032831	0.26825882572649906	-2.3832942613466765	-0.028969355251284325	0.2752933438609454	-2.428767000032381	-0.03621111634994956	0.22172337338639422	-2.622365782374733	-0.018681392401139862	0.2788551114217626	-2.4185888753385165	1.51974339304037	0.27638373833322694	-2.3572784018170156	1.771828143210774	0.28935962720633385	-2.2626450040813952	1.6362252130695603	0.292225580488105	-2.4669871333615316	1.405976885157179	0.45944621834496957	-2.478068788025847	1.0888176975463124	0.5453406843399274	-2.4247940037146334	0.8390242629853982	0.5734307633582936	-2.4631360666329747	1.4044122054826138	0.08466207404965254	-2.4277062919485677	1.0857208574766817	0.0660542660427492	-2.3748416203565714	0.8407565273514049	0.08094807878420575
